<svg width="230" height="185" viewBox="0 0 230 185" fill="none" xmlns="http://www.w3.org/2000/svg">
<circle cx="2.5" cy="2.5" r="2.5" fill="#ADADAD"/>
<circle cx="52.5" cy="2.5" r="2.5" fill="#ADADAD"/>
<circle cx="152.5" cy="2.5" r="2.5" fill="#ADADAD"/>
<circle cx="77.5" cy="2.5" r="2.5" fill="#ADADAD"/>
<circle cx="177.5" cy="2.5" r="2.5" fill="#ADADAD"/>
<circle cx="102.5" cy="2.5" r="2.5" fill="#ADADAD"/>
<circle cx="202.5" cy="2.5" r="2.5" fill="#ADADAD"/>
<circle cx="127.5" cy="2.5" r="2.5" fill="#ADADAD"/>
<circle cx="227.5" cy="2.5" r="2.5" fill="#ADADAD"/>
<circle cx="27.5" cy="2.5" r="2.5" fill="#ADADAD"/>
<circle cx="2.5" cy="17.5" r="2.5" fill="#ADADAD"/>
<circle cx="52.5" cy="17.5" r="2.5" fill="#ADADAD"/>
<circle cx="152.5" cy="17.5" r="2.5" fill="#ADADAD"/>
<circle cx="77.5" cy="17.5" r="2.5" fill="#ADADAD"/>
<circle cx="177.5" cy="17.5" r="2.5" fill="#ADADAD"/>
<circle cx="102.5" cy="17.5" r="2.5" fill="#ADADAD"/>
<circle cx="202.5" cy="17.5" r="2.5" fill="#ADADAD"/>
<circle cx="127.5" cy="17.5" r="2.5" fill="#ADADAD"/>
<circle cx="227.5" cy="17.5" r="2.5" fill="#ADADAD"/>
<circle cx="27.5" cy="17.5" r="2.5" fill="#ADADAD"/>
<circle cx="2.5" cy="32.5" r="2.5" fill="#ADADAD"/>
<circle cx="52.5" cy="32.5" r="2.5" fill="#ADADAD"/>
<circle cx="152.5" cy="32.5" r="2.5" fill="#ADADAD"/>
<circle cx="77.5" cy="32.5" r="2.5" fill="#ADADAD"/>
<circle cx="177.5" cy="32.5" r="2.5" fill="#ADADAD"/>
<circle cx="102.5" cy="32.5" r="2.5" fill="#ADADAD"/>
<circle cx="202.5" cy="32.5" r="2.5" fill="#ADADAD"/>
<circle cx="127.5" cy="32.5" r="2.5" fill="#ADADAD"/>
<circle cx="227.5" cy="32.5" r="2.5" fill="#ADADAD"/>
<circle cx="27.5" cy="32.5" r="2.5" fill="#ADADAD"/>
<circle cx="2.5" cy="47.5" r="2.5" fill="#ADADAD"/>
<circle cx="52.5" cy="47.5" r="2.5" fill="#ADADAD"/>
<circle cx="152.5" cy="47.5" r="2.5" fill="#ADADAD"/>
<circle cx="77.5" cy="47.5" r="2.5" fill="#ADADAD"/>
<circle cx="177.5" cy="47.5" r="2.5" fill="#ADADAD"/>
<circle cx="102.5" cy="47.5" r="2.5" fill="#ADADAD"/>
<circle cx="202.5" cy="47.5" r="2.5" fill="#ADADAD"/>
<circle cx="127.5" cy="47.5" r="2.5" fill="#ADADAD"/>
<circle cx="227.5" cy="47.5" r="2.5" fill="#ADADAD"/>
<circle cx="27.5" cy="47.5" r="2.5" fill="#ADADAD"/>
<circle cx="2.5" cy="62.5" r="2.5" fill="#ADADAD"/>
<circle cx="52.5" cy="62.5" r="2.5" fill="#ADADAD"/>
<circle cx="152.5" cy="62.5" r="2.5" fill="#ADADAD"/>
<circle cx="77.5" cy="62.5" r="2.5" fill="#ADADAD"/>
<circle cx="177.5" cy="62.5" r="2.5" fill="#ADADAD"/>
<circle cx="102.5" cy="62.5" r="2.5" fill="#ADADAD"/>
<circle cx="202.5" cy="62.5" r="2.5" fill="#ADADAD"/>
<circle cx="127.5" cy="62.5" r="2.5" fill="#ADADAD"/>
<circle cx="227.5" cy="62.5" r="2.5" fill="#ADADAD"/>
<circle cx="27.5" cy="62.5" r="2.5" fill="#ADADAD"/>
<circle cx="2.5" cy="77.5" r="2.5" fill="#ADADAD"/>
<circle cx="52.5" cy="77.5" r="2.5" fill="#ADADAD"/>
<circle cx="152.5" cy="77.5" r="2.5" fill="#ADADAD"/>
<circle cx="77.5" cy="77.5" r="2.5" fill="#ADADAD"/>
<circle cx="177.5" cy="77.5" r="2.5" fill="#ADADAD"/>
<circle cx="102.5" cy="77.5" r="2.5" fill="#ADADAD"/>
<circle cx="202.5" cy="77.5" r="2.5" fill="#ADADAD"/>
<circle cx="127.5" cy="77.5" r="2.5" fill="#ADADAD"/>
<circle cx="227.5" cy="77.5" r="2.5" fill="#ADADAD"/>
<circle cx="27.5" cy="77.5" r="2.5" fill="#ADADAD"/>
<circle cx="2.5" cy="92.5" r="2.5" fill="#ADADAD"/>
<circle cx="52.5" cy="92.5" r="2.5" fill="#ADADAD"/>
<circle cx="152.5" cy="92.5" r="2.5" fill="#ADADAD"/>
<circle cx="77.5" cy="92.5" r="2.5" fill="#ADADAD"/>
<circle cx="177.5" cy="92.5" r="2.5" fill="#ADADAD"/>
<circle cx="102.5" cy="92.5" r="2.5" fill="#ADADAD"/>
<circle cx="202.5" cy="92.5" r="2.5" fill="#ADADAD"/>
<circle cx="127.5" cy="92.5" r="2.5" fill="#ADADAD"/>
<circle cx="227.5" cy="92.5" r="2.5" fill="#ADADAD"/>
<circle cx="27.5" cy="92.5" r="2.5" fill="#ADADAD"/>
<circle cx="2.5" cy="107.5" r="2.5" fill="#ADADAD"/>
<circle cx="52.5" cy="107.5" r="2.5" fill="#ADADAD"/>
<circle cx="152.5" cy="107.5" r="2.5" fill="#ADADAD"/>
<circle cx="77.5" cy="107.5" r="2.5" fill="#ADADAD"/>
<circle cx="177.5" cy="107.5" r="2.5" fill="#ADADAD"/>
<circle cx="102.5" cy="107.5" r="2.5" fill="#ADADAD"/>
<circle cx="202.5" cy="107.5" r="2.5" fill="#ADADAD"/>
<circle cx="127.5" cy="107.5" r="2.5" fill="#ADADAD"/>
<circle cx="227.5" cy="107.5" r="2.5" fill="#ADADAD"/>
<circle cx="27.5" cy="107.5" r="2.5" fill="#ADADAD"/>
<circle cx="2.5" cy="122.5" r="2.5" fill="#ADADAD"/>
<circle cx="52.5" cy="122.5" r="2.5" fill="#ADADAD"/>
<circle cx="152.5" cy="122.5" r="2.5" fill="#ADADAD"/>
<circle cx="77.5" cy="122.5" r="2.5" fill="#ADADAD"/>
<circle cx="177.5" cy="122.5" r="2.5" fill="#ADADAD"/>
<circle cx="102.5" cy="122.5" r="2.5" fill="#ADADAD"/>
<circle cx="202.5" cy="122.5" r="2.5" fill="#ADADAD"/>
<circle cx="127.5" cy="122.5" r="2.5" fill="#ADADAD"/>
<circle cx="227.5" cy="122.5" r="2.5" fill="#ADADAD"/>
<circle cx="27.5" cy="122.5" r="2.5" fill="#ADADAD"/>
<circle cx="2.5" cy="137.5" r="2.5" fill="#ADADAD"/>
<circle cx="52.5" cy="137.5" r="2.5" fill="#ADADAD"/>
<circle cx="152.5" cy="137.5" r="2.5" fill="#ADADAD"/>
<circle cx="77.5" cy="137.5" r="2.5" fill="#ADADAD"/>
<circle cx="177.5" cy="137.5" r="2.5" fill="#ADADAD"/>
<circle cx="102.5" cy="137.5" r="2.5" fill="#ADADAD"/>
<circle cx="202.5" cy="137.5" r="2.5" fill="#ADADAD"/>
<circle cx="127.5" cy="137.5" r="2.5" fill="#ADADAD"/>
<circle cx="227.5" cy="137.5" r="2.5" fill="#ADADAD"/>
<circle cx="27.5" cy="137.5" r="2.5" fill="#ADADAD"/>
<circle cx="2.5" cy="152.5" r="2.5" fill="#ADADAD"/>
<circle cx="52.5" cy="152.5" r="2.5" fill="#ADADAD"/>
<circle cx="152.5" cy="152.5" r="2.5" fill="#ADADAD"/>
<circle cx="77.5" cy="152.5" r="2.5" fill="#ADADAD"/>
<circle cx="177.5" cy="152.5" r="2.5" fill="#ADADAD"/>
<circle cx="102.5" cy="152.5" r="2.5" fill="#ADADAD"/>
<circle cx="202.5" cy="152.5" r="2.5" fill="#ADADAD"/>
<circle cx="127.5" cy="152.5" r="2.5" fill="#ADADAD"/>
<circle cx="227.5" cy="152.5" r="2.5" fill="#ADADAD"/>
<circle cx="27.5" cy="152.5" r="2.5" fill="#ADADAD"/>
<circle cx="2.5" cy="167.5" r="2.5" fill="#ADADAD"/>
<circle cx="52.5" cy="167.5" r="2.5" fill="#ADADAD"/>
<circle cx="152.5" cy="167.5" r="2.5" fill="#ADADAD"/>
<circle cx="77.5" cy="167.5" r="2.5" fill="#ADADAD"/>
<circle cx="177.5" cy="167.5" r="2.5" fill="#ADADAD"/>
<circle cx="102.5" cy="167.5" r="2.5" fill="#ADADAD"/>
<circle cx="202.5" cy="167.5" r="2.5" fill="#ADADAD"/>
<circle cx="127.5" cy="167.5" r="2.5" fill="#ADADAD"/>
<circle cx="227.5" cy="167.5" r="2.5" fill="#ADADAD"/>
<circle cx="27.5" cy="167.5" r="2.5" fill="#ADADAD"/>
<circle cx="2.5" cy="182.5" r="2.5" fill="#ADADAD"/>
<circle cx="52.5" cy="182.5" r="2.5" fill="#ADADAD"/>
<circle cx="152.5" cy="182.5" r="2.5" fill="#ADADAD"/>
<circle cx="77.5" cy="182.5" r="2.5" fill="#ADADAD"/>
<circle cx="177.5" cy="182.5" r="2.5" fill="#ADADAD"/>
<circle cx="102.5" cy="182.5" r="2.5" fill="#ADADAD"/>
<circle cx="202.5" cy="182.5" r="2.5" fill="#ADADAD"/>
<circle cx="127.5" cy="182.5" r="2.5" fill="#ADADAD"/>
<circle cx="227.5" cy="182.5" r="2.5" fill="#ADADAD"/>
<circle cx="27.5" cy="182.5" r="2.5" fill="#ADADAD"/>
</svg>
